<svg width="775" height="670" viewBox="0 0 775 670" fill="none" xmlns="http://www.w3.org/2000/svg">
<g id="contact-image 1" clip-path="url(#clip0_2_2)">
<path id="Vector" d="M739.75 625.549L740.531 607.973C748.68 603.617 757.769 601.317 767.009 601.271C754.292 611.667 755.881 631.709 747.26 645.69C744.537 650.03 740.873 653.702 736.539 656.433C732.205 659.164 727.311 660.885 722.221 661.469L711.58 667.984C710.119 659.844 710.441 651.483 712.523 643.479C714.605 635.475 718.398 628.018 723.639 621.62C726.615 618.061 730.028 614.89 733.796 612.183C736.345 618.903 739.75 625.549 739.75 625.549Z" fill="#F9A826"/>
<path id="Vector_2" d="M168.799 606.289L143.119 598.514C139.751 584.831 139.774 570.532 143.186 556.86C153.761 579.569 183.978 584.769 201.393 602.776C206.781 608.434 210.827 615.232 213.231 622.666C215.636 630.1 216.336 637.98 215.281 645.722L220.902 663.903C208.321 662.995 196.087 659.37 185.043 653.279C173.998 647.187 164.405 638.774 156.925 628.618C152.785 622.879 149.384 616.642 146.803 610.053C157.695 608.818 168.799 606.289 168.799 606.289Z" fill="#F9A826"/>
<path id="Vector_3" d="M719.767 665.11C719.763 665.642 719.551 666.152 719.176 666.53C718.991 666.715 718.771 666.861 718.529 666.961C718.287 667.06 718.028 667.111 717.767 667.11H709.727C709.464 667.111 709.203 667.06 708.96 666.96C708.717 666.859 708.496 666.712 708.31 666.526C708.124 666.34 707.977 666.119 707.877 665.876C707.777 665.633 707.726 665.373 707.727 665.11V421.97C707.727 416.61 705.927 412.26 703.717 412.25H101.227C99.0065 412.26 97.2165 416.61 97.2065 421.97V663.62C97.2049 664.117 97.0188 664.596 96.6844 664.963C96.35 665.331 95.8911 665.561 95.3965 665.61C93.7765 665.77 92.1565 665.91 90.5465 666.04C90.5065 666.04 90.4665 666.05 90.4265 666.05C89.5465 666.13 88.6665 666.19 87.7865 666.26H87.7765C87.3165 665.43 86.8765 664.58 86.4265 663.73C86.2823 663.441 86.207 663.123 86.2065 662.8V409.36C86.2065 407.88 86.2665 406.39 86.3665 404.92C86.5092 402.901 86.7596 400.892 87.1165 398.9C88.8065 389.61 92.6265 383.32 96.9665 383.3H707.967C708.6 383.304 709.226 383.437 709.806 383.69C710.659 384.067 711.43 384.607 712.077 385.28C712.954 386.192 713.704 387.218 714.306 388.33C716.446 392.1 717.977 397.72 718.517 404.26C718.517 404.32 718.526 404.38 718.526 404.44C718.666 406.06 718.737 407.71 718.727 409.36L718.867 430.79L718.957 443.57L719.227 483.67L719.327 497.91L719.767 665.11Z" fill="#D9D9D9"/>
<path id="Vector_4" d="M772.941 669.591L497.191 669.898C496.875 669.898 496.574 669.772 496.351 669.549C496.128 669.325 496.003 669.023 496.003 668.708C496.003 668.393 496.128 668.09 496.351 667.867C496.574 667.644 496.875 667.518 497.191 667.517L772.941 667.21C773.256 667.211 773.558 667.336 773.78 667.56C774.003 667.783 774.128 668.085 774.128 668.4C774.128 668.716 774.003 669.018 773.78 669.241C773.558 669.464 773.256 669.59 772.941 669.591Z" fill="#CACACA"/>
<path id="Vector_5" d="M430.668 312.261H381.83C381.139 312.262 380.477 312.538 379.989 313.027C379.501 313.516 379.227 314.179 379.228 314.87V392.02H433.277V314.87C433.277 314.527 433.21 314.188 433.078 313.871C432.947 313.555 432.755 313.267 432.513 313.025C432.271 312.783 431.983 312.59 431.667 312.459C431.35 312.328 431.011 312.261 430.668 312.261ZM406.413 356.097C404.886 356.09 403.423 355.48 402.343 354.4C401.263 353.32 400.653 351.857 400.646 350.33V341.431C400.646 339.902 401.254 338.435 402.335 337.354C403.417 336.272 404.884 335.664 406.413 335.664C407.943 335.664 409.41 336.272 410.491 337.354C411.573 338.435 412.18 339.902 412.18 341.431V350.33C412.173 351.857 411.563 353.32 410.483 354.4C409.403 355.48 407.941 356.09 406.413 356.097V356.097Z" fill="#2F2E41"/>
<path id="Vector_6" d="M511.54 191.86H302.776C300.982 191.863 299.263 192.577 297.994 193.845C296.726 195.113 296.012 196.832 296.009 198.626V339.501C296.011 341.295 296.725 343.015 297.993 344.284C299.262 345.552 300.982 346.265 302.776 346.267H511.54C513.334 346.265 515.054 345.552 516.322 344.284C517.591 343.015 518.304 341.295 518.306 339.501V198.626C518.303 196.832 517.589 195.113 516.321 193.845C515.053 192.577 513.333 191.863 511.54 191.86V191.86Z" fill="#3F3D56"/>
<path id="screen" d="M509.794 196.746H304.516C303.556 196.748 302.636 197.131 301.957 197.811C301.279 198.49 300.898 199.411 300.898 200.372V337.755C300.899 338.714 301.281 339.634 301.959 340.312C302.638 340.99 303.557 341.372 304.516 341.374H509.794C510.753 341.372 511.672 340.99 512.351 340.312C513.029 339.634 513.411 338.714 513.412 337.755V200.372C513.412 199.411 513.031 198.49 512.353 197.811C511.674 197.131 510.754 196.748 509.794 196.746V196.746Z" fill="white"/>
<path id="Vector_7" d="M379.06 389.552V396.996C379.061 397.381 379.215 397.751 379.487 398.024C379.76 398.296 380.13 398.45 380.516 398.451H431.989C432.374 398.449 432.744 398.295 433.016 398.022C433.288 397.75 433.442 397.381 433.444 396.996V389.552H379.06Z" fill="#3F3D56"/>
<path id="Vector_8" d="M469.813 401.041H347.684C347.349 401.041 347.019 400.966 346.717 400.822C346.416 400.679 346.15 400.469 345.939 400.21C345.728 399.95 345.578 399.647 345.5 399.322C345.421 398.997 345.416 398.658 345.485 398.331L347.38 389.331C347.488 388.828 347.765 388.376 348.165 388.052C348.565 387.727 349.063 387.549 349.578 387.547H467.918C468.433 387.549 468.932 387.727 469.331 388.052C469.731 388.376 470.008 388.828 470.116 389.331L472.011 398.331C472.08 398.658 472.075 398.997 471.996 399.322C471.918 399.647 471.768 399.95 471.557 400.21C471.347 400.469 471.081 400.679 470.779 400.822C470.477 400.966 470.147 401.041 469.813 401.041V401.041Z" fill="#2F2E41"/>
<path id="Vector_9" d="M353.719 389.168H350.934C350.664 389.168 350.446 389.386 350.446 389.656V390.937C350.446 391.206 350.664 391.425 350.934 391.425H353.719C353.989 391.425 354.207 391.206 354.207 390.937V389.656C354.207 389.386 353.989 389.168 353.719 389.168Z" fill="#3F3D56"/>
<path id="Vector_10" d="M361.242 389.168H358.457C358.187 389.168 357.969 389.386 357.969 389.656V390.937C357.969 391.206 358.187 391.425 358.457 391.425H361.242C361.511 391.425 361.73 391.206 361.73 390.937V389.656C361.73 389.386 361.511 389.168 361.242 389.168Z" fill="#3F3D56"/>
<path id="Vector_11" d="M368.765 389.168H365.98C365.71 389.168 365.491 389.386 365.491 389.656V390.937C365.491 391.206 365.71 391.425 365.98 391.425H368.765C369.034 391.425 369.253 391.206 369.253 390.937V389.656C369.253 389.386 369.034 389.168 368.765 389.168Z" fill="#3F3D56"/>
<path id="Vector_12" d="M376.288 389.168H373.503C373.233 389.168 373.014 389.386 373.014 389.656V390.937C373.014 391.206 373.233 391.425 373.503 391.425H376.288C376.557 391.425 376.776 391.206 376.776 390.937V389.656C376.776 389.386 376.557 389.168 376.288 389.168Z" fill="#3F3D56"/>
<path id="Vector_13" d="M383.811 389.168H381.025C380.756 389.168 380.537 389.386 380.537 389.656V390.937C380.537 391.206 380.756 391.425 381.025 391.425H383.811C384.08 391.425 384.299 391.206 384.299 390.937V389.656C384.299 389.386 384.08 389.168 383.811 389.168Z" fill="#3F3D56"/>
<path id="Vector_14" d="M391.333 389.168H388.548C388.279 389.168 388.06 389.386 388.06 389.656V390.937C388.06 391.206 388.279 391.425 388.548 391.425H391.333C391.603 391.425 391.822 391.206 391.822 390.937V389.656C391.822 389.386 391.603 389.168 391.333 389.168Z" fill="#3F3D56"/>
<path id="Vector_15" d="M398.856 389.168H396.071C395.802 389.168 395.583 389.386 395.583 389.656V390.937C395.583 391.206 395.802 391.425 396.071 391.425H398.856C399.126 391.425 399.345 391.206 399.345 390.937V389.656C399.345 389.386 399.126 389.168 398.856 389.168Z" fill="#3F3D56"/>
<path id="Vector_16" d="M406.379 389.168H403.594C403.325 389.168 403.106 389.386 403.106 389.656V390.937C403.106 391.206 403.325 391.425 403.594 391.425H406.379C406.649 391.425 406.867 391.206 406.867 390.937V389.656C406.867 389.386 406.649 389.168 406.379 389.168Z" fill="#3F3D56"/>
<path id="Vector_17" d="M413.902 389.168H411.117C410.847 389.168 410.629 389.386 410.629 389.656V390.937C410.629 391.206 410.847 391.425 411.117 391.425H413.902C414.172 391.425 414.39 391.206 414.39 390.937V389.656C414.39 389.386 414.172 389.168 413.902 389.168Z" fill="#3F3D56"/>
<path id="Vector_18" d="M421.425 389.168H418.64C418.37 389.168 418.152 389.386 418.152 389.656V390.937C418.152 391.206 418.37 391.425 418.64 391.425H421.425C421.695 391.425 421.913 391.206 421.913 390.937V389.656C421.913 389.386 421.695 389.168 421.425 389.168Z" fill="#3F3D56"/>
<path id="Vector_19" d="M428.948 389.168H426.163C425.893 389.168 425.675 389.386 425.675 389.656V390.937C425.675 391.206 425.893 391.425 426.163 391.425H428.948C429.218 391.425 429.436 391.206 429.436 390.937V389.656C429.436 389.386 429.218 389.168 428.948 389.168Z" fill="#3F3D56"/>
<path id="Vector_20" d="M436.471 389.168H433.686C433.416 389.168 433.198 389.386 433.198 389.656V390.937C433.198 391.206 433.416 391.425 433.686 391.425H436.471C436.74 391.425 436.959 391.206 436.959 390.937V389.656C436.959 389.386 436.74 389.168 436.471 389.168Z" fill="#3F3D56"/>
<path id="Vector_21" d="M443.994 389.168H441.209C440.939 389.168 440.721 389.386 440.721 389.656V390.937C440.721 391.206 440.939 391.425 441.209 391.425H443.994C444.263 391.425 444.482 391.206 444.482 390.937V389.656C444.482 389.386 444.263 389.168 443.994 389.168Z" fill="#3F3D56"/>
<path id="Vector_22" d="M451.517 389.168H448.732C448.462 389.168 448.243 389.386 448.243 389.656V390.937C448.243 391.206 448.462 391.425 448.732 391.425H451.517C451.786 391.425 452.005 391.206 452.005 390.937V389.656C452.005 389.386 451.786 389.168 451.517 389.168Z" fill="#3F3D56"/>
<path id="Vector_23" d="M459.04 389.168H456.255C455.985 389.168 455.766 389.386 455.766 389.656V390.937C455.766 391.206 455.985 391.425 456.255 391.425H459.04C459.309 391.425 459.528 391.206 459.528 390.937V389.656C459.528 389.386 459.309 389.168 459.04 389.168Z" fill="#3F3D56"/>
<path id="Vector_24" d="M466.562 389.168H463.777C463.508 389.168 463.289 389.386 463.289 389.656V390.937C463.289 391.206 463.508 391.425 463.777 391.425H466.562C466.832 391.425 467.051 391.206 467.051 390.937V389.656C467.051 389.386 466.832 389.168 466.562 389.168Z" fill="#3F3D56"/>
<path id="Vector_25" d="M353.63 392.929H350.845C350.575 392.929 350.357 393.148 350.357 393.418V394.698C350.357 394.968 350.575 395.186 350.845 395.186H353.63C353.9 395.186 354.118 394.968 354.118 394.698V393.418C354.118 393.148 353.9 392.929 353.63 392.929Z" fill="#3F3D56"/>
<path id="Vector_26" d="M361.153 392.929H358.368C358.098 392.929 357.88 393.148 357.88 393.418V394.698C357.88 394.968 358.098 395.186 358.368 395.186H361.153C361.423 395.186 361.641 394.968 361.641 394.698V393.418C361.641 393.148 361.423 392.929 361.153 392.929Z" fill="#3F3D56"/>
<path id="Vector_27" d="M368.676 392.929H365.891C365.621 392.929 365.403 393.148 365.403 393.418V394.698C365.403 394.968 365.621 395.186 365.891 395.186H368.676C368.945 395.186 369.164 394.968 369.164 394.698V393.418C369.164 393.148 368.945 392.929 368.676 392.929Z" fill="#3F3D56"/>
<path id="Vector_28" d="M376.199 392.929H373.414C373.144 392.929 372.925 393.148 372.925 393.418V394.698C372.925 394.968 373.144 395.186 373.414 395.186H376.199C376.468 395.186 376.687 394.968 376.687 394.698V393.418C376.687 393.148 376.468 392.929 376.199 392.929Z" fill="#3F3D56"/>
<path id="Vector_29" d="M383.722 392.929H380.937C380.667 392.929 380.448 393.148 380.448 393.418V394.698C380.448 394.968 380.667 395.186 380.937 395.186H383.722C383.991 395.186 384.21 394.968 384.21 394.698V393.418C384.21 393.148 383.991 392.929 383.722 392.929Z" fill="#3F3D56"/>
<path id="Vector_30" d="M391.245 392.929H388.459C388.19 392.929 387.971 393.148 387.971 393.418V394.698C387.971 394.968 388.19 395.186 388.459 395.186H391.245C391.514 395.186 391.733 394.968 391.733 394.698V393.418C391.733 393.148 391.514 392.929 391.245 392.929Z" fill="#3F3D56"/>
<path id="Vector_31" d="M398.767 392.929H395.982C395.713 392.929 395.494 393.148 395.494 393.418V394.698C395.494 394.968 395.713 395.186 395.982 395.186H398.767C399.037 395.186 399.256 394.968 399.256 394.698V393.418C399.256 393.148 399.037 392.929 398.767 392.929Z" fill="#3F3D56"/>
<path id="Vector_32" d="M406.29 392.929H403.505C403.236 392.929 403.017 393.148 403.017 393.418V394.698C403.017 394.968 403.236 395.186 403.505 395.186H406.29C406.56 395.186 406.779 394.968 406.779 394.698V393.418C406.779 393.148 406.56 392.929 406.29 392.929Z" fill="#3F3D56"/>
<path id="Vector_33" d="M413.813 392.929H411.028C410.759 392.929 410.54 393.148 410.54 393.418V394.698C410.54 394.968 410.759 395.186 411.028 395.186H413.813C414.083 395.186 414.301 394.968 414.301 394.698V393.418C414.301 393.148 414.083 392.929 413.813 392.929Z" fill="#3F3D56"/>
<path id="Vector_34" d="M421.336 392.929H418.551C418.281 392.929 418.063 393.148 418.063 393.418V394.698C418.063 394.968 418.281 395.186 418.551 395.186H421.336C421.606 395.186 421.824 394.968 421.824 394.698V393.418C421.824 393.148 421.606 392.929 421.336 392.929Z" fill="#3F3D56"/>
<path id="Vector_35" d="M428.859 392.929H426.074C425.804 392.929 425.586 393.148 425.586 393.418V394.698C425.586 394.968 425.804 395.186 426.074 395.186H428.859C429.129 395.186 429.347 394.968 429.347 394.698V393.418C429.347 393.148 429.129 392.929 428.859 392.929Z" fill="#3F3D56"/>
<path id="Vector_36" d="M436.382 392.929H433.597C433.327 392.929 433.109 393.148 433.109 393.418V394.698C433.109 394.968 433.327 395.186 433.597 395.186H436.382C436.652 395.186 436.87 394.968 436.87 394.698V393.418C436.87 393.148 436.652 392.929 436.382 392.929Z" fill="#3F3D56"/>
<path id="Vector_37" d="M443.905 392.929H441.12C440.85 392.929 440.632 393.148 440.632 393.418V394.698C440.632 394.968 440.85 395.186 441.12 395.186H443.905C444.174 395.186 444.393 394.968 444.393 394.698V393.418C444.393 393.148 444.174 392.929 443.905 392.929Z" fill="#3F3D56"/>
<path id="Vector_38" d="M451.428 392.929H448.643C448.373 392.929 448.155 393.148 448.155 393.418V394.698C448.155 394.968 448.373 395.186 448.643 395.186H451.428C451.697 395.186 451.916 394.968 451.916 394.698V393.418C451.916 393.148 451.697 392.929 451.428 392.929Z" fill="#3F3D56"/>
<path id="Vector_39" d="M458.951 392.929H456.166C455.896 392.929 455.677 393.148 455.677 393.418V394.698C455.677 394.968 455.896 395.186 456.166 395.186H458.951C459.22 395.186 459.439 394.968 459.439 394.698V393.418C459.439 393.148 459.22 392.929 458.951 392.929Z" fill="#3F3D56"/>
<path id="Vector_40" d="M466.474 392.929H463.689C463.419 392.929 463.2 393.148 463.2 393.418V394.698C463.2 394.968 463.419 395.186 463.689 395.186H466.474C466.743 395.186 466.962 394.968 466.962 394.698V393.418C466.962 393.148 466.743 392.929 466.474 392.929Z" fill="#3F3D56"/>
<path id="Vector_41" d="M416.07 397.443H386.955C386.685 397.443 386.467 397.662 386.467 397.931V399.212C386.467 399.481 386.685 399.7 386.955 399.7H416.07C416.34 399.7 416.558 399.481 416.558 399.212V397.931C416.558 397.662 416.34 397.443 416.07 397.443Z" fill="#3F3D56"/>
<path id="Vector_42" d="M499.478 215.675H307.401C307.201 215.671 307.011 215.589 306.871 215.446C306.731 215.303 306.653 215.111 306.653 214.912C306.653 214.712 306.731 214.52 306.871 214.377C307.011 214.234 307.201 214.152 307.401 214.148H499.478C499.678 214.152 499.868 214.234 500.008 214.377C500.148 214.52 500.226 214.712 500.226 214.912C500.226 215.111 500.148 215.303 500.008 215.446C499.868 215.589 499.678 215.671 499.478 215.675V215.675Z" fill="#CACACA"/>
<path id="Vector_43" d="M320.476 210.248C322.948 210.248 324.952 208.199 324.952 205.672C324.952 203.144 322.948 201.095 320.476 201.095C318.004 201.095 315.999 203.144 315.999 205.672C315.999 208.199 318.004 210.248 320.476 210.248Z" fill="#3F3D56"/>
<path id="Vector_44" d="M335.94 210.248C338.412 210.248 340.416 208.199 340.416 205.672C340.416 203.144 338.412 201.095 335.94 201.095C333.468 201.095 331.464 203.144 331.464 205.672C331.464 208.199 333.468 210.248 335.94 210.248Z" fill="#3F3D56"/>
<path id="Vector_45" d="M351.404 210.248C353.876 210.248 355.881 208.199 355.881 205.672C355.881 203.144 353.876 201.095 351.404 201.095C348.932 201.095 346.928 203.144 346.928 205.672C346.928 208.199 348.932 210.248 351.404 210.248Z" fill="#3F3D56"/>
<path id="Vector_46" d="M490.168 202.23H479.183C478.965 202.234 478.758 202.323 478.605 202.479C478.453 202.634 478.367 202.844 478.367 203.061C478.367 203.279 478.453 203.488 478.605 203.644C478.758 203.799 478.965 203.889 479.183 203.893H490.168C490.385 203.889 490.593 203.799 490.745 203.644C490.898 203.488 490.983 203.279 490.983 203.061C490.983 202.844 490.898 202.634 490.745 202.479C490.593 202.323 490.385 202.234 490.168 202.23V202.23Z" fill="#3F3D56"/>
<path id="Vector_47" d="M490.168 205.352H479.183C478.965 205.356 478.758 205.446 478.605 205.601C478.453 205.757 478.367 205.966 478.367 206.183C478.367 206.401 478.453 206.61 478.605 206.766C478.758 206.921 478.965 207.011 479.183 207.015H490.168C490.385 207.011 490.593 206.921 490.745 206.766C490.898 206.61 490.983 206.401 490.983 206.183C490.983 205.966 490.898 205.757 490.745 205.601C490.593 205.446 490.385 205.356 490.168 205.352V205.352Z" fill="#3F3D56"/>
<path id="Vector_48" d="M490.168 208.47H479.183C478.965 208.474 478.758 208.564 478.605 208.719C478.453 208.875 478.367 209.084 478.367 209.301C478.367 209.519 478.453 209.728 478.605 209.884C478.758 210.039 478.965 210.129 479.183 210.133H490.168C490.385 210.129 490.593 210.039 490.745 209.884C490.898 209.728 490.983 209.519 490.983 209.301C490.983 209.084 490.898 208.875 490.745 208.719C490.593 208.564 490.385 208.474 490.168 208.47V208.47Z" fill="#3F3D56"/>
<path id="color" d="M418.783 260.3H394.782C392.979 260.3 391.518 261.761 391.518 263.564V263.564C391.518 265.367 392.979 266.828 394.782 266.828H418.783C420.586 266.828 422.047 265.367 422.047 263.564V263.564C422.047 261.761 420.586 260.3 418.783 260.3Z" fill="#F9A826"/>
<path id="color2" d="M434.288 273.356H379.277C377.474 273.356 376.013 274.818 376.013 276.621V276.621C376.013 278.423 377.474 279.885 379.277 279.885H434.288C436.091 279.885 437.552 278.423 437.552 276.621V276.621C437.552 274.818 436.091 273.356 434.288 273.356Z" fill="#E6E6E6"/>
<path id="Vector_49" d="M434.288 286.413H379.277C377.474 286.413 376.013 287.874 376.013 289.677C376.013 291.48 377.474 292.941 379.277 292.941H434.288C436.091 292.941 437.552 291.48 437.552 289.677C437.552 287.874 436.091 286.413 434.288 286.413Z" fill="#E6E6E6"/>
<path id="Vector_50" d="M309.277 410.86H249.277C247.155 410.86 245.12 411.703 243.62 413.203C242.119 414.703 241.277 416.738 241.277 418.86C241.277 420.982 242.119 423.017 243.62 424.517C245.12 426.017 247.155 426.86 249.277 426.86H271.277V488.86H287.277V426.86H309.277C311.398 426.86 313.433 426.017 314.933 424.517C316.434 423.017 317.277 420.982 317.277 418.86C317.277 416.738 316.434 414.703 314.933 413.203C313.433 411.703 311.398 410.86 309.277 410.86Z" fill="#9F9F9F"/>
<path id="Vector_51" d="M348.878 523.197H188.395C172.837 523.14 157.818 517.488 146.083 507.273C134.348 497.058 126.679 482.963 124.478 467.561L118.797 446.665C107.04 403.365 89.13 361.976 65.6161 323.762C54.8688 306.309 49.3372 289.414 61.9013 273.147C62.0083 273.009 62.1135 272.872 62.2169 272.737C72.2941 259.621 122.451 256.782 138.802 256.23C139.448 256.208 140.097 256.197 140.748 256.197H240.567C241.218 256.197 241.866 256.208 242.511 256.23C251.326 256.487 259.906 259.125 267.343 263.865C274.779 268.604 280.793 275.269 284.748 283.151C288.967 291.198 290.93 300.237 290.427 309.309C289.924 318.382 286.975 327.149 281.892 334.68C246.828 387.351 236.093 420.378 247.084 441.765C257.715 462.453 290.304 473.03 349.642 475.05C365.589 475.593 372.907 488.01 372.958 499.317C373.008 510.332 365.972 522.493 350.405 523.165C349.9 523.186 349.39 523.197 348.878 523.197Z" fill="#DCDCDC"/>
<path id="Vector_52" d="M215.657 665.697H275.657C277.779 665.697 279.814 664.854 281.314 663.354C282.814 661.853 283.657 659.819 283.657 657.697C283.657 655.575 282.814 653.54 281.314 652.04C279.814 650.54 277.779 649.697 275.657 649.697H253.657V514.697H237.657V649.697H215.657C213.535 649.697 211.501 650.54 210 652.04C208.5 653.54 207.657 655.575 207.657 657.697C207.657 659.819 208.5 661.853 210 663.354C211.501 664.854 213.535 665.697 215.657 665.697Z" fill="#DCDCDC"/>
<path id="Vector_53" d="M210.865 261.208L212.123 268.851C212.718 272.557 214.873 298.737 213.277 301.86C213.136 296.028 202.277 286.86 195.24 288.953L184.198 291.407L177.345 292.932L171.766 294.155L155.557 297.696C155.529 297.508 155.509 297.308 155.48 297.12C155.442 296.883 155.404 296.645 155.356 296.41C155.054 294.89 154.503 293.43 153.726 292.089C153.644 293.885 153.114 295.633 152.184 297.172C152.158 297.212 152.136 297.254 152.118 297.297C151.83 297.763 151.512 298.21 151.167 298.635C151.151 298.646 151.136 298.66 151.124 298.675C151.124 298.675 147.793 245.585 148.142 245.095C148.397 244.746 148.655 244.408 148.924 244.077C149.191 243.737 149.45 243.408 149.729 243.076C149.765 243.044 149.795 243.007 149.819 242.965C150.6 242.041 151.428 241.156 152.298 240.315C152.554 240.068 152.819 239.82 153.085 239.572C157.14 235.82 161.985 233.025 167.263 231.393C167.859 231.21 168.478 231.043 169.107 230.873C169.728 230.716 170.36 230.566 170.997 230.435L171.213 230.391C171.516 230.329 171.832 230.275 172.138 230.222C172.522 230.154 172.908 230.095 173.286 230.049C178.197 229.341 183.2 229.623 188.001 230.876C188.01 230.874 188.012 230.884 188.022 230.882C192.03 231.929 195.839 233.625 199.298 235.903C205.281 239.854 207.61 246.298 209.264 253.533C209.844 256.017 210.332 258.602 210.865 261.208Z" fill="#2F2E41"/>
<path id="Vector_54" d="M269.963 611.271L280.299 616.886L307.661 579.054L292.405 570.768L269.963 611.271Z" fill="#FFB6B6"/>
<path id="Vector_55" d="M274.938 597.791L293.702 603.667L290.716 611.527L303.583 630.202C304.218 631.124 304.542 632.226 304.508 633.345C304.473 634.465 304.082 635.544 303.39 636.425C302.699 637.307 301.744 637.944 300.665 638.244C299.585 638.544 298.439 638.491 297.392 638.093L275.548 629.794L274.737 620.588L270.312 627.805L262.077 624.676L274.938 597.791Z" fill="#2F2E41"/>
<path id="Vector_56" d="M328.51 442.06C326.86 442.462 325.142 442.497 323.477 442.163C321.812 441.829 320.241 441.134 318.874 440.127C317.507 439.12 316.377 437.826 315.564 436.335C314.752 434.844 314.276 433.193 314.17 431.498L226.008 399.782L242.188 385.702L325.866 419.019C328.724 419.03 331.48 420.09 333.61 421.997C335.739 423.903 337.096 426.525 337.422 429.365C337.748 432.206 337.02 435.066 335.378 437.406C333.735 439.746 331.291 441.402 328.51 442.06V442.06Z" fill="#FFB6B6"/>
<path id="Vector_57" d="M201.38 321.209C201.38 321.209 186.532 321.537 185.211 338.488C183.891 355.44 216.29 397.37 221.31 404.285C226.33 411.199 282.087 419.71 282.087 419.71L301.041 405.95C281.125 393.045 262.949 383.15 250.751 383.595L201.38 321.209Z" fill="#F9A826"/>
<path id="Vector_58" d="M183.169 396.007L186.787 411.553C186.787 411.553 186.823 425.888 189.362 428.531C191.883 431.162 247.317 425.88 247.317 425.88C247.317 425.88 241.44 402.78 241.518 385.301L183.169 396.007Z" fill="#FFB6B6"/>
<path id="Vector_59" d="M300.277 594.86L280.277 583.86C279.896 557.835 295.55 522.617 314.116 485.728C272.593 492.869 233.42 495.157 199.537 486.518C193.974 485.049 189.213 481.45 186.282 476.499C183.352 471.549 182.486 465.643 183.874 460.06C184.006 459.512 184.158 458.969 184.332 458.433C188.387 446.06 179.294 438.305 187.657 424.697C209.654 417.185 230.549 415.063 249.657 421.697L261.63 448.168L320.972 440.489C323.839 440.146 326.746 440.374 329.524 441.16C332.303 441.946 334.898 443.274 337.161 445.067C339.424 446.861 341.31 449.084 342.709 451.61C344.109 454.136 344.995 456.913 345.316 459.783C345.396 460.427 345.448 461.074 345.472 461.723C333.473 517.976 320.018 568.592 300.277 594.86Z" fill="#2F2E41"/>
<path id="Vector_60" d="M185.917 288.58C199.339 285.833 207.993 272.727 205.246 259.305C202.5 245.884 189.394 237.23 175.972 239.976C162.551 242.723 153.897 255.829 156.643 269.251C159.39 282.672 172.496 291.326 185.917 288.58Z" fill="#FFB6B6"/>
<path id="Vector_61" d="M175.114 297.584L197.975 296.234C198.939 296.177 199.897 296.423 200.715 296.936C201.533 297.449 202.17 298.205 202.539 299.097L208.999 314.759L235.849 336.951C235.849 336.951 246.48 350.479 246.505 367.95C246.53 385.421 250.277 425.86 250.277 425.86C250.277 425.86 234.762 404.021 225.185 409.83C223.556 410.818 222.983 412.839 221.277 413.86C220.425 414.369 218.459 413.874 217.599 414.385C204.403 422.218 190.641 429.871 189.355 428.529C186.831 425.894 183.768 412.432 183.768 412.432L162.842 335.544C161.707 331.499 161.482 327.253 162.182 323.11C162.882 318.967 164.49 315.031 166.891 311.583C168.353 309.524 169.885 307.993 171.308 307.74C174.504 307.059 172.804 299.896 175.114 297.584Z" fill="#F9A826"/>
<path id="Vector_62" d="M369.583 643.84L379.233 637.131L357.372 595.887L343.13 605.789L369.583 643.84Z" fill="#FFB6B6"/>
<path id="Vector_63" d="M371.042 616.166L355.918 629.684C331.87 602.889 313.691 565.309 298.285 522.632C257.919 510.809 227.478 491.743 200.903 469.105C191.887 461.477 185.129 451.677 192.818 442.384C193.177 441.95 193.553 441.529 193.944 441.124C203.022 431.794 226.045 433.572 239.529 425.024L269.65 457.22L267.755 465.852L324.333 485.017C327.055 485.971 329.561 487.455 331.707 489.382C333.853 491.31 335.596 493.643 336.836 496.248C338.076 498.852 338.788 501.677 338.931 504.558C339.073 507.439 338.644 510.32 337.668 513.034C337.456 513.648 337.218 514.251 336.955 514.845L371.042 616.166Z" fill="#2F2E41"/>
<path id="Vector_64" d="M363.957 641.12L379.404 628.955L384.204 635.86L406.882 635.791C408.002 635.787 409.094 636.142 409.998 636.803C410.903 637.464 411.572 638.397 411.909 639.465C412.245 640.533 412.232 641.681 411.87 642.741C411.508 643.801 410.816 644.718 409.897 645.357L390.71 658.694L382.655 654.163L386.111 661.891L378.877 666.92L363.957 641.12Z" fill="#2F2E41"/>
<path id="Vector_65" d="M208.872 491.353C207.309 490.689 205.911 489.691 204.775 488.429C203.64 487.167 202.795 485.671 202.3 484.046C201.805 482.422 201.672 480.709 201.911 479.028C202.15 477.347 202.754 475.739 203.682 474.316L151.928 396.215L173.314 394.589L220.516 471.296C222.802 473.012 224.379 475.508 224.948 478.31C225.517 481.111 225.038 484.024 223.603 486.496C222.168 488.968 219.875 490.828 217.16 491.723C214.445 492.619 211.496 492.487 208.872 491.353Z" fill="#FFB6B6"/>
<path id="Vector_66" d="M179.115 318.491C179.115 318.491 167.012 309.883 155.826 322.689C144.641 335.495 145.575 388.475 145.47 397.019C145.437 399.695 149.3 405.468 154.623 412.136C157.012 415.129 159.696 418.304 162.454 421.459C164.049 423.285 162.674 427.085 164.277 428.86C165.87 430.625 170.441 430.365 171.956 432.003C179.15 439.778 184.995 445.697 184.995 445.697L208.415 445.985C208.679 428.575 196.757 413.034 181.439 398.014L179.115 318.491Z" fill="#F9A826"/>
<path id="Vector_67" d="M211.947 252.229C211.03 252.682 210.139 253.119 209.264 253.533C205.754 255.258 202.127 256.734 198.409 257.949C197.79 256.266 196.847 254.722 195.632 253.403C195.943 255.224 195.784 257.094 195.171 258.836C189.544 260.23 183.637 260.001 178.134 258.178C181.732 264.842 184.392 278.884 184.198 291.407C184.114 298.028 183.217 304.224 181.26 308.676L178.745 301.025C178.512 298.292 178.044 295.584 177.345 292.932C175.658 285.489 174.084 290.465 171.766 294.155L155.557 297.696C155.529 297.508 155.509 297.308 155.48 297.12C155.442 296.883 155.404 296.645 155.356 296.41C155.054 294.89 154.503 293.43 153.726 292.089C153.644 293.886 153.114 295.633 152.184 297.172C152.158 297.212 152.136 297.254 152.118 297.297C151.83 297.763 151.512 298.21 151.167 298.635C151.151 298.646 151.136 298.66 151.124 298.675C140.659 300.075 133.323 246.109 148.144 245.105C148.575 245.075 148.657 244.418 148.924 244.077C149.191 243.737 149.45 243.408 149.729 243.076C149.765 243.044 149.795 243.007 149.819 242.965C150.611 242.048 151.431 241.166 152.298 240.315C152.554 240.068 152.82 239.82 153.085 239.572C157.153 235.838 161.995 233.049 167.265 231.403C167.861 231.22 168.478 231.043 169.107 230.873C169.728 230.716 170.36 230.566 170.997 230.435L171.213 230.391C171.516 230.329 171.832 230.275 172.138 230.223C172.522 230.154 172.908 230.096 173.286 230.049C174.707 230.765 175.922 231.829 176.818 233.143L187.174 231.025C187.448 230.968 187.724 230.922 188.003 230.886L188.022 230.882C200.951 228.716 209.263 239.11 211.947 252.229Z" fill="#2F2E41"/>
<path id="Vector_68" d="M155.508 242.688C153.291 244.288 150.958 245.937 148.252 246.333C145.547 246.73 142.379 245.422 141.63 242.792C140.715 239.576 143.619 236.648 146.229 234.558L154.505 227.931C156.02 226.587 157.731 225.481 159.579 224.651C160.507 224.242 161.515 224.048 162.528 224.082C163.541 224.115 164.534 224.377 165.433 224.846C166.322 225.447 167.043 226.265 167.527 227.223C168.011 228.181 168.241 229.247 168.196 230.32C168.078 232.469 167.369 234.544 166.146 236.316C164.61 238.71 162.605 240.769 160.252 242.369C157.899 243.968 155.247 245.075 152.455 245.622" fill="#2F2E41"/>
<path id="Vector_69" d="M218.277 414.86H158.277C156.155 414.86 154.12 415.703 152.62 417.203C151.119 418.703 150.277 420.738 150.277 422.86C150.277 424.982 151.119 427.017 152.62 428.517C154.12 430.017 156.155 430.86 158.277 430.86H180.277V492.86H196.277V430.86H218.277C220.398 430.86 222.433 430.017 223.933 428.517C225.434 427.017 226.277 424.982 226.277 422.86C226.277 420.738 225.434 418.703 223.933 417.203C222.433 415.703 220.398 414.86 218.277 414.86Z" fill="#9F9F9F"/>
<path id="Vector_70" d="M439.941 668.591L1.19069 668.898C0.875498 668.898 0.573534 668.772 0.350983 668.549C0.128431 668.325 0.00344849 668.023 0.00344849 667.708C0.00344849 667.393 0.128431 667.09 0.350983 666.867C0.573534 666.644 0.875498 666.518 1.19069 666.517L439.941 666.21C440.256 666.211 440.558 666.336 440.78 666.56C441.003 666.783 441.128 667.085 441.128 667.4C441.128 667.716 441.003 668.018 440.78 668.241C440.558 668.464 440.256 668.59 439.941 668.591Z" fill="#CACACA"/>
<path id="Vector_71" d="M567.621 535.776L577.388 546.42L623.092 513.812L608.676 498.102L567.621 535.776Z" fill="#A0616A"/>
<path id="Vector_72" d="M587.837 550.84V550.83L586.846 540.2L586.397 539.99L583.767 538.74L571.357 532.87L571.096 532.59L568.607 529.87L554.817 542.53L573.497 562.89L586.307 576.85L586.737 576.45C588.492 574.842 589.913 572.903 590.919 570.745C591.924 568.587 592.494 566.252 592.596 563.873C592.699 561.494 592.331 559.119 591.514 556.883C590.697 554.646 589.448 552.593 587.837 550.84H587.837Z" fill="#2F2E41"/>
<path id="Vector_73" d="M517.018 641.96L530.84 646.159L553.614 594.841L533.213 588.644L517.018 641.96Z" fill="#A0616A"/>
<path id="Vector_74" d="M552.807 653.45C551.692 651.346 550.171 649.484 548.33 647.973C546.49 646.462 544.368 645.333 542.087 644.65L535.817 636L535.327 636.04L518.757 637.56L518.387 637.45L514.867 636.38L509.427 654.29L553.997 667.83L554.167 667.26C554.862 664.982 555.1 662.589 554.866 660.219C554.633 657.849 553.933 655.548 552.807 653.45V653.45Z" fill="#2F2E41"/>
<path id="Path 17" d="M630.997 373.267C630.997 373.267 719.249 458.475 663.458 484.85H646.214C646.214 484.85 641.032 466.439 629.168 450.914C627.539 448.782 621.436 449.215 619.741 447.137C609.392 434.45 598.172 423.554 590.423 423.987L592.277 482.86L595.277 503.86C596.852 514.716 552.394 609.503 552.394 609.503L524.451 598.521C524.451 598.521 553.564 520.45 553.905 509.194L530.575 385.44L630.997 373.267Z" fill="#2F2E41"/>
<path id="Vector_75" d="M638.357 377.47C637.907 378.112 637.319 378.645 636.637 379.03C635.512 379.666 634.293 380.118 633.027 380.37C613.157 384.88 548.247 394.23 531.397 389.77C529.327 389.23 527.977 388.47 527.537 387.47C526.127 384.31 526.307 370.96 527.137 354.84C527.287 351.82 530.617 348.55 530.817 345.39C530.957 343.02 527.967 340.79 528.127 338.38C529.227 322.08 530.647 305.47 531.597 294.97C532.197 288.22 532.607 284 532.607 284L522.357 219.37L522.837 218.58L523.377 218.31L556.427 201.95L558.227 197.35C558.748 196.026 559.655 194.888 560.83 194.084C562.004 193.28 563.393 192.847 564.817 192.84L586.587 192.75C587.716 192.744 588.831 193.007 589.838 193.519C590.845 194.03 591.715 194.774 592.377 195.69L598.277 203.86L637.277 228.86L637.127 229.32L618.827 285.01L618.737 289.35V289.36L618.057 324.26L619.947 328.99L617.817 336.75C617.817 336.75 618.797 345.82 624.047 352.56C628.807 358.68 634.867 365.06 637.607 370.24V370.25C639.127 373.11 639.637 375.59 638.357 377.47Z" fill="#F9A826"/>
<path id="Path 18" d="M667.695 479.788L662.978 485.748C662.978 485.748 619.595 516.1 618.105 518.936L611.249 525.424L594.659 507.691L603.286 496.878C610.19 488.224 619.11 481.395 629.266 476.988V476.988L642.487 465.258L667.695 479.788Z" fill="#2F2E41"/>
<path id="Vector_76" d="M640.129 394.601L632.229 318.13L630.143 286.658L652.256 282.659C652.256 282.659 651.38 305.163 654.277 317.86C657.135 330.389 654.656 392.922 654.479 394.594C656.103 396.046 657.248 397.957 657.762 400.074C658.276 402.191 658.136 404.414 657.359 406.449C656.582 408.485 655.206 410.236 653.412 411.472C651.618 412.708 649.491 413.371 647.313 413.372C645.134 413.373 643.007 412.712 641.212 411.478C639.417 410.244 638.039 408.493 637.26 406.459C636.481 404.424 636.339 402.201 636.851 400.084C637.363 397.966 638.506 396.054 640.129 394.601V394.601Z" fill="#A0616A"/>
<path id="Vector_77" d="M661.699 333.977L633.277 339.86L630.791 329.952L627.894 326.879L622.105 296.555L613.8 278.792L615.959 218.049L637.053 229.236L637.079 229.256C640.305 232.758 642.528 237.77 646.226 242.8C657.876 258.649 659.168 297.16 658.815 318.254C658.809 318.6 659.158 318.966 659.576 319.35C661.559 321.171 662.854 323.621 663.241 326.286C663.627 328.951 663.083 331.667 661.699 333.977V333.977Z" fill="#F9A826"/>
<path id="Vector_78" d="M511.424 397.601L519.324 321.13L521.41 289.658L499.297 285.659C499.297 285.659 500.173 308.163 497.277 320.86C494.418 333.389 496.897 395.922 497.074 397.594C495.45 399.046 494.305 400.957 493.791 403.074C493.277 405.191 493.417 407.414 494.194 409.449C494.971 411.485 496.347 413.236 498.141 414.472C499.935 415.708 502.062 416.371 504.24 416.372C506.419 416.373 508.546 415.712 510.341 414.478C512.136 413.244 513.514 411.493 514.293 409.459C515.072 407.424 515.214 405.201 514.702 403.084C514.19 400.966 513.047 399.054 511.424 397.601V397.601Z" fill="#A0616A"/>
<path id="Vector_79" d="M537.757 281.79L531.597 294.97L529.447 299.56L523.657 329.88L520.766 332.95L518.277 342.86L517.107 342.62L496.007 338.25L489.857 336.98C488.47 334.67 487.924 331.953 488.311 329.287C488.697 326.622 489.992 324.171 491.977 322.35C492.397 321.97 492.746 321.6 492.737 321.25C492.387 300.16 493.676 261.65 505.326 245.8C509.026 240.77 511.247 235.76 514.477 232.26C514.487 232.25 514.487 232.24 514.496 232.24L522.357 219.37L522.837 218.58L523.377 218.31L537.757 281.79Z" fill="#F9A826"/>
<path id="Ellipse 5" d="M575.073 186.552C591.071 186.552 604.039 173.584 604.039 157.587C604.039 141.589 591.071 128.621 575.073 128.621C559.076 128.621 546.108 141.589 546.108 157.587C546.108 173.584 559.076 186.552 575.073 186.552Z" fill="#A0616A"/>
<path id="Vector_80" d="M607.637 144.88C607.537 139.94 606.977 133.62 603.517 128.58C600.597 124.34 594.706 120.98 589.216 122.66C589.278 121.562 589.034 120.469 588.511 119.501C587.989 118.534 587.208 117.73 586.257 117.18C584.177 115.91 581.676 115.68 579.466 115.47C573.896 114.95 568.127 114.41 562.487 115.48C556.157 116.68 550.977 119.94 548.287 124.43L548.227 124.57L547.677 127.23C547.603 127.587 547.453 127.923 547.238 128.217C547.022 128.51 546.745 128.754 546.427 128.93C546.108 129.109 545.753 129.215 545.388 129.241C545.023 129.267 544.658 129.212 544.316 129.08C543.943 128.94 543.54 128.9 543.146 128.963C542.753 129.027 542.383 129.192 542.073 129.443C541.763 129.693 541.523 130.02 541.379 130.392C541.234 130.763 541.188 131.166 541.246 131.56L541.396 132.62L539.806 132.32C539.407 132.243 538.995 132.273 538.612 132.409C538.228 132.544 537.888 132.78 537.626 133.09C537.364 133.401 537.19 133.777 537.121 134.177C537.053 134.578 537.093 134.99 537.236 135.37L537.676 136.58C537.348 136.584 537.024 136.655 536.723 136.787C536.422 136.919 536.152 137.111 535.926 137.35C535.605 137.699 535.403 138.14 535.349 138.611C535.296 139.082 535.393 139.558 535.626 139.97C537.409 143.012 539.934 145.551 542.966 147.35C544.33 148.171 545.801 148.801 547.336 149.22C547.656 149.31 547.986 149.39 548.326 149.46C560.604 152.106 573.262 152.486 585.676 150.58C584.945 153.029 584.664 155.591 584.846 158.14C585.246 161.33 587.116 163.96 589.616 164.84C590.183 165.032 590.765 165.172 591.356 165.26C591.923 165.352 592.482 165.489 593.026 165.67C593.831 165.965 594.543 166.466 595.091 167.125C595.639 167.783 596.004 168.574 596.148 169.418C596.292 170.263 596.21 171.13 595.912 171.933C595.613 172.736 595.107 173.445 594.446 173.99C594.446 173.99 597.066 176.16 597.396 176.05C598.684 175.481 599.761 174.523 600.476 173.31C605.467 166.13 607.877 156.57 607.637 144.88Z" fill="#2F2E41"/>
</g>
<defs>
<clipPath id="clip0_2_2">
<rect width="774.131" height="669.898" fill="white"/>
</clipPath>
</defs>
</svg>
